<svg version="1.2" xmlns="http://www.w3.org/2000/svg" xmlns:xlink="http://www.w3.org/1999/xlink" overflow="visible" preserveAspectRatio="none" viewBox="0 0 198.07655999999994 293.03946" width="198.07655999999994" height="293.03946"><g transform="translate(0, 0)"><g transform="translate(-6.213215000000009, -6.213215000000018) rotate(0)"><path d="M199.89638,61.56897c5.85786,5.85786 5.85786,15.35534 0,21.2132l-44.30211,44.30211l36.87485,36.87485c5.85786,5.85786 5.85786,15.35534 0,21.2132l-109.68695,109.68695c-5.85786,5.85786 -15.35534,5.85786 -21.2132,0l-50.96236,-50.96236c-5.85786,-5.85786 -5.85786,-15.35534 0,-21.2132l44.30211,-44.30211l-36.87485,-36.87485c-5.85786,-5.85786 -5.85786,-15.35534 0,-21.2132l109.68695,-109.68695c5.85786,-5.85786 15.35534,-5.85786 21.2132,0z" style="stroke: rgb(140, 140, 140); stroke-width: 0; stroke-linecap: butt; stroke-linejoin: miter; fill: url(&quot;#gradient-1637676151203319&quot;);" vector-effect="non-scaling-stroke"/></g><defs><path id="path-163767615089929" d="M199.89638,61.56897c5.85786,5.85786 5.85786,15.35534 0,21.2132l-44.30211,44.30211l36.87485,36.87485c5.85786,5.85786 5.85786,15.35534 0,21.2132l-109.68695,109.68695c-5.85786,5.85786 -15.35534,5.85786 -21.2132,0l-50.96236,-50.96236c-5.85786,-5.85786 -5.85786,-15.35534 0,-21.2132l44.30211,-44.30211l-36.87485,-36.87485c-5.85786,-5.85786 -5.85786,-15.35534 0,-21.2132l109.68695,-109.68695c5.85786,-5.85786 15.35534,-5.85786 21.2132,0z" vector-effect="non-scaling-stroke"/><linearGradient id="gradient-1637676151203319" x1="0%" y1="50%" x2="100%" y2="50%" vector-effect="non-scaling-stroke"><stop offset="0%" stop-color="rgba(255,15,15,0.52)" stop-opacity="0.52" vector-effect="non-scaling-stroke"/><stop offset="100%" stop-color="rgba(255,213,0,0)" stop-opacity="0" vector-effect="non-scaling-stroke"/></linearGradient></defs></g></svg>